# Blender v2.76 (sub 0) OBJ File: 'analyzer.blend'
# www.blender.org
mtllib portable_analyzer.mtl
o Cube
v 0.000000 0.000000 -1.000000
v 0.000000 0.000000 1.000000
v -2.000000 0.000000 1.000000
v -2.000000 0.000000 -1.000000
v 0.000000 2.000000 -0.999999
v -0.000001 2.000000 1.000001
v -2.000000 2.000000 1.000000
v -2.000000 2.000000 -1.000000
vt 0.333134 0.666467
vt 0.000200 0.666467
vt 0.000200 0.333533
vt 0.333134 0.333533
vt 0.333134 0.333133
vt 0.000200 0.333134
vt 0.000200 0.000200
vt 0.333133 0.000200
vt 0.666467 0.000200
vt 0.666467 0.333133
vt 0.333533 0.333134
vt 0.333533 0.000200
vt 0.666467 0.333533
vt 0.666467 0.666467
vt 0.333533 0.666467
vt 0.333533 0.333533
vt 0.666867 0.333134
vt 0.666867 0.000200
vt 0.999800 0.000200
vt 0.999800 0.333134
vt 0.333134 0.666866
vt 0.333134 0.999800
vt 0.000200 0.999800
vt 0.000200 0.666867
vn 0.000000 -1.000000 0.000000
vn 0.000000 1.000000 0.000000
vn 1.000000 0.000000 0.000000
vn -0.000000 -0.000000 1.000000
vn -1.000000 -0.000000 -0.000000
vn 0.000000 0.000000 -1.000000
usemtl Material
s off
f 1/1/1 2/2/1 3/3/1 4/4/1
f 5/5/2 8/6/2 7/7/2 6/8/2
f 1/9/3 5/10/3 6/11/3 2/12/3
f 2/13/4 6/14/4 7/15/4 3/16/4
f 3/17/5 7/18/5 8/19/5 4/20/5
f 5/21/6 1/22/6 4/23/6 8/24/6
o Cube.002
v 0.019512 -0.814826 0.400000
v 0.019512 -0.014826 0.400000
v 0.019512 -0.814826 -0.400000
v 0.019512 -0.014826 -0.400000
v 0.819512 -0.814826 0.400000
v 0.819512 -0.014826 0.400000
v 0.819512 -0.814826 -0.400000
v 0.819512 -0.014826 -0.400000
v -0.400000 -0.400000 0.400000
v -0.400000 0.400000 0.400000
v -0.400000 -0.400000 -0.400000
v -0.400000 0.400000 -0.400000
v 0.400000 -0.400000 0.400000
v 0.400000 0.400000 0.400000
v 0.400000 -0.400000 -0.400000
v 0.400000 0.400000 -0.400000
v 0.380219 -1.219758 0.400000
v 0.380219 -0.419758 0.400000
v 0.380219 -1.219758 -0.400000
v 0.380219 -0.419758 -0.400000
v 1.180220 -1.219758 0.400000
v 1.180220 -0.419758 0.400000
v 1.180220 -1.219758 -0.400000
v 1.180220 -0.419758 -0.400000
v 0.816532 -1.616757 0.400000
v 0.816532 -0.816757 0.400000
v 0.816532 -1.616757 -0.400000
v 0.816532 -0.816757 -0.400000
v 1.616532 -1.616757 0.400000
v 1.616532 -0.816757 0.400000
v 1.616532 -1.616757 -0.400000
v 1.616532 -0.816757 -0.400000
v 1.182726 -1.997157 0.400000
v 1.182726 -1.197157 0.400000
v 1.182726 -1.997157 -0.400000
v 1.182726 -1.197157 -0.400000
v 1.982726 -1.997157 0.400000
v 1.982726 -1.197157 0.400000
v 1.982726 -1.997157 -0.400000
v 1.982726 -1.197157 -0.400000
v 1.613529 -2.404108 0.400000
v 1.613529 -1.604107 0.400000
v 1.613529 -2.404108 -0.400000
v 1.613529 -1.604107 -0.400000
v 2.413529 -2.404108 0.400000
v 2.413529 -1.604107 0.400000
v 2.413529 -2.404108 -0.400000
v 2.413529 -1.604107 -0.400000
v 1.982327 -2.780653 0.400000
v 1.982327 -1.980653 0.400000
v 1.982327 -2.780653 -0.400000
v 1.982327 -1.980653 -0.400000
v 2.782327 -2.780653 0.400000
v 2.782327 -1.980653 0.400000
v 2.782327 -2.780653 -0.400000
v 2.782327 -1.980653 -0.400000
vt 0.714881 0.714881
vt 0.856548 0.714881
vt 0.856548 0.856548
vt 0.714881 0.856548
vt 0.572024 0.285119
vt 0.572024 0.143452
vt 0.713691 0.143452
vt 0.713691 0.285119
vt 0.427976 0.570834
vt 0.286309 0.570834
vt 0.286309 0.429166
vt 0.427976 0.429166
vt 0.570834 0.713691
vt 0.429166 0.713691
vt 0.429166 0.572024
vt 0.570834 0.572024
vt 0.429166 0.856548
vt 0.429166 0.714881
vt 0.570834 0.714881
vt 0.570834 0.856548
vt 0.427976 0.572024
vt 0.427976 0.713691
vt 0.286309 0.713691
vt 0.286309 0.572024
vt 0.572024 0.142262
vt 0.572024 0.000595
vt 0.713691 0.000595
vt 0.713691 0.142262
vt 0.429166 0.427976
vt 0.429166 0.286309
vt 0.570834 0.286309
vt 0.570834 0.427976
vt 0.856548 0.427976
vt 0.714881 0.427976
vt 0.714881 0.286309
vt 0.856548 0.286309
vt 0.285119 0.856548
vt 0.143452 0.856548
vt 0.143452 0.714881
vt 0.285119 0.714881
vt 0.714881 0.285119
vt 0.714881 0.143452
vt 0.856548 0.143452
vt 0.856548 0.285119
vt 0.999405 0.000595
vt 0.999405 0.142262
vt 0.857738 0.142262
vt 0.857738 0.000595
vt 0.143452 0.713691
vt 0.143452 0.572024
vt 0.285119 0.572024
vt 0.285119 0.713691
vt 0.429166 0.570834
vt 0.429166 0.429166
vt 0.570834 0.429166
vt 0.570834 0.570834
vt 0.713691 0.713691
vt 0.572024 0.713691
vt 0.572024 0.572024
vt 0.713691 0.572024
vt 0.713691 0.427976
vt 0.572024 0.427976
vt 0.572024 0.286309
vt 0.713691 0.286309
vt 0.572024 0.856548
vt 0.572024 0.714881
vt 0.713691 0.714881
vt 0.713691 0.856548
vt 0.713691 0.429166
vt 0.713691 0.570834
vt 0.572024 0.570834
vt 0.572024 0.429166
vt 0.000595 0.713691
vt 0.000595 0.572024
vt 0.142262 0.572024
vt 0.142262 0.713691
vt 0.999405 0.427976
vt 0.857738 0.427976
vt 0.857738 0.286309
vt 0.999405 0.286309
vt 0.142262 0.999405
vt 0.000595 0.999405
vt 0.000595 0.857738
vt 0.142262 0.857738
vt 0.856548 0.570834
vt 0.714881 0.570834
vt 0.714881 0.429166
vt 0.856548 0.429166
vt 0.714881 0.572024
vt 0.856548 0.572024
vt 0.856548 0.713691
vt 0.714881 0.713691
vt 0.286309 0.856548
vt 0.286309 0.714881
vt 0.427976 0.714881
vt 0.427976 0.856548
vt 0.143452 0.999405
vt 0.143452 0.857738
vt 0.285119 0.857738
vt 0.285119 0.999405
vt 0.286309 0.285119
vt 0.286309 0.143452
vt 0.427976 0.143452
vt 0.427976 0.285119
vt 0.285119 0.570834
vt 0.143452 0.570834
vt 0.143452 0.429166
vt 0.285119 0.429166
vt 0.570834 0.285119
vt 0.429166 0.285119
vt 0.429166 0.143452
vt 0.570834 0.143452
vt 0.143452 0.142262
vt 0.143452 0.000595
vt 0.285119 0.000595
vt 0.285119 0.142262
vt 0.999405 0.143452
vt 0.999405 0.285119
vt 0.857738 0.285119
vt 0.857738 0.143452
vt 0.000595 0.286309
vt 0.142262 0.286309
vt 0.142262 0.427976
vt 0.000595 0.427976
vt 0.000595 0.143452
vt 0.142262 0.143452
vt 0.142262 0.285119
vt 0.000595 0.285119
vt 0.142262 0.570834
vt 0.000595 0.570834
vt 0.000595 0.429166
vt 0.142262 0.429166
vt 0.142262 0.856548
vt 0.000595 0.856548
vt 0.000595 0.714881
vt 0.142262 0.714881
vt 0.000595 0.142262
vt 0.000595 0.000595
vt 0.142262 0.000595
vt 0.142262 0.142262
vt 0.856548 0.000595
vt 0.856548 0.142262
vt 0.714881 0.142262
vt 0.714881 0.000595
vt 0.286309 0.000595
vt 0.427976 0.000595
vt 0.427976 0.142262
vt 0.286309 0.142262
vt 0.429166 0.142262
vt 0.429166 0.000595
vt 0.570834 0.000595
vt 0.570834 0.142262
vt 0.427976 0.427976
vt 0.286309 0.427976
vt 0.286309 0.286309
vt 0.427976 0.286309
vt 0.285119 0.427976
vt 0.143452 0.427976
vt 0.143452 0.286309
vt 0.285119 0.286309
vt 0.286309 0.999405
vt 0.286309 0.857738
vt 0.427976 0.857738
vt 0.427976 0.999405
vt 0.285119 0.143452
vt 0.285119 0.285119
vt 0.143452 0.285119
vt 0.143452 0.143452
vn -1.000000 0.000000 0.000000
vn 0.000000 0.000000 -1.000000
vn 1.000000 0.000000 0.000000
vn 0.000000 0.000000 1.000000
vn 0.000000 -1.000000 0.000000
vn 0.000000 1.000000 0.000000
usemtl None
s off
f 10/25/7 12/26/7 11/27/7 9/28/7
f 12/29/8 16/30/8 15/31/8 11/32/8
f 16/33/9 14/34/9 13/35/9 15/36/9
f 14/37/10 10/38/10 9/39/10 13/40/10
f 9/41/11 11/42/11 15/43/11 13/44/11
f 14/45/12 16/46/12 12/47/12 10/48/12
f 18/49/7 20/50/7 19/51/7 17/52/7
f 20/53/8 24/54/8 23/55/8 19/56/8
f 24/57/9 22/58/9 21/59/9 23/60/9
f 22/61/10 18/62/10 17/63/10 21/64/10
f 17/65/11 19/66/11 23/67/11 21/68/11
f 22/69/12 24/70/12 20/71/12 18/72/12
f 26/73/7 28/74/7 27/75/7 25/76/7
f 28/77/8 32/78/8 31/79/8 27/80/8
f 32/81/9 30/82/9 29/83/9 31/84/9
f 30/85/10 26/86/10 25/87/10 29/88/10
f 25/89/11 27/90/11 31/91/11 29/92/11
f 30/93/12 32/94/12 28/95/12 26/96/12
f 34/97/7 36/98/7 35/99/7 33/100/7
f 36/101/8 40/102/8 39/103/8 35/104/8
f 40/105/9 38/106/9 37/107/9 39/108/9
f 38/109/10 34/110/10 33/111/10 37/112/10
f 33/113/11 35/114/11 39/115/11 37/116/11
f 38/117/12 40/118/12 36/119/12 34/120/12
f 42/121/7 44/122/7 43/123/7 41/124/7
f 44/125/8 48/126/8 47/127/8 43/128/8
f 48/129/9 46/130/9 45/131/9 47/132/9
f 46/133/10 42/134/10 41/135/10 45/136/10
f 41/137/11 43/138/11 47/139/11 45/140/11
f 46/141/12 48/142/12 44/143/12 42/144/12
f 50/145/7 52/146/7 51/147/7 49/148/7
f 52/149/8 56/150/8 55/151/8 51/152/8
f 56/153/9 54/154/9 53/155/9 55/156/9
f 54/157/10 50/158/10 49/159/10 53/160/10
f 49/161/11 51/162/11 55/163/11 53/164/11
f 54/165/12 56/166/12 52/167/12 50/168/12
f 58/169/7 60/170/7 59/171/7 57/172/7
f 60/173/8 64/174/8 63/175/8 59/176/8
f 64/177/9 62/178/9 61/179/9 63/180/9
f 62/181/10 58/182/10 57/183/10 61/184/10
f 57/185/11 59/186/11 63/187/11 61/188/11
f 62/189/12 64/190/12 60/191/12 58/192/12
