# Blender v2.76 (sub 0) OBJ File: 'filter.blend'
# www.blender.org
mtllib Thaumic.mtl
o Icosphere
v 0.000000 -0.500000 0.000000
v 0.361804 -0.223610 0.262863
v -0.138194 -0.223610 0.425325
v -0.447213 -0.223608 0.000000
v -0.138194 -0.223610 -0.425325
v 0.361804 -0.223610 -0.262863
v 0.138194 0.223610 0.425325
v -0.361804 0.223610 0.262863
v -0.361804 0.223610 -0.262863
v 0.138194 0.223610 -0.425325
v 0.447213 0.223608 0.000000
v 0.000000 0.500000 0.000000
v -0.081228 -0.425327 0.249998
v 0.212661 -0.425327 0.154506
v 0.131434 -0.262869 0.404506
v 0.425324 -0.262868 0.000000
v 0.212661 -0.425327 -0.154506
v -0.262865 -0.425326 0.000000
v -0.344095 -0.262868 0.249998
v -0.081228 -0.425327 -0.249998
v -0.344095 -0.262868 -0.249998
v 0.131434 -0.262869 -0.404506
v 0.475529 0.000000 0.154506
v 0.475529 0.000000 -0.154506
v 0.000000 0.000000 0.500000
v 0.293893 0.000000 0.404508
v -0.475529 0.000000 0.154506
v -0.293893 0.000000 0.404508
v -0.293893 0.000000 -0.404508
v -0.475529 0.000000 -0.154506
v 0.293893 0.000000 -0.404508
v 0.000000 0.000000 -0.500000
v 0.344095 0.262868 0.249998
v -0.131434 0.262869 0.404506
v -0.425324 0.262868 0.000000
v -0.131434 0.262869 -0.404506
v 0.344095 0.262868 -0.249998
v 0.081228 0.425327 0.249998
v 0.262865 0.425326 0.000000
v -0.212661 0.425327 0.154506
v -0.212661 0.425327 -0.154506
v 0.081228 0.425327 -0.249998
vt 0.990679 0.420629
vt 0.990679 0.518645
vt 0.899258 0.455975
vt 0.401211 0.980102
vt 0.401211 0.882085
vt 0.492632 0.944756
vt 0.181482 0.900922
vt 0.146137 0.992342
vt 0.083466 0.900922
vt 0.399662 0.973507
vt 0.301646 0.973507
vt 0.364317 0.882086
vt 0.618138 0.081618
vt 0.562718 0.000774
vt 0.673557 0.000774
vt 0.195853 0.761078
vt 0.293869 0.761078
vt 0.231199 0.852501
vt 0.533016 0.693533
vt 0.631032 0.693533
vt 0.568361 0.784956
vt 0.708675 0.083463
vt 0.806692 0.083463
vt 0.744020 0.174886
vt 0.630557 0.419081
vt 0.630557 0.321063
vt 0.721980 0.383734
vt 0.113459 0.476051
vt 0.194305 0.420632
vt 0.194305 0.531473
vt 0.293872 0.668107
vt 0.258524 0.759529
vt 0.195853 0.668107
vt 0.168584 0.000774
vt 0.224003 0.081620
vt 0.113163 0.081620
vt 0.573589 0.419081
vt 0.518170 0.338235
vt 0.629008 0.338235
vt 0.401213 0.780972
vt 0.401213 0.682954
vt 0.492634 0.745625
vt 0.600857 0.195854
vt 0.692279 0.231201
vt 0.600857 0.293871
vt 0.083466 0.714981
vt 0.181483 0.714981
vt 0.118812 0.806403
vt 0.732147 0.884521
vt 0.732147 0.786504
vt 0.823568 0.849174
vt 0.287274 0.952066
vt 0.195853 0.916720
vt 0.287274 0.854049
vt 0.897710 0.512051
vt 0.799693 0.512051
vt 0.862363 0.420629
vt 0.138886 0.533021
vt 0.194305 0.613866
vt 0.083466 0.613866
vt 0.737193 0.886069
vt 0.674522 0.977490
vt 0.639177 0.886069
vt 0.308242 0.195854
vt 0.404232 0.251272
vt 0.308242 0.306693
vt 0.561170 0.000774
vt 0.505749 0.081620
vt 0.450329 0.000774
vt 0.999226 0.181479
vt 0.907805 0.118809
vt 0.999226 0.083463
vt 0.516618 0.138883
vt 0.420629 0.194303
vt 0.420629 0.083463
vt 0.306693 0.503321
vt 0.251273 0.584166
vt 0.195853 0.503321
vt 0.419079 0.681406
vt 0.308241 0.681406
vt 0.363660 0.600561
vt 0.614156 0.083463
vt 0.614156 0.194303
vt 0.518167 0.138882
vt 0.631031 0.970895
vt 0.533016 0.970895
vt 0.568362 0.879474
vt 0.195853 0.585715
vt 0.306692 0.585715
vt 0.251273 0.666559
vt 0.308242 0.516619
vt 0.363661 0.420629
vt 0.419081 0.516619
vt 0.083466 0.807952
vt 0.181482 0.807952
vt 0.146136 0.899373
vt 0.928303 0.195854
vt 0.990974 0.287274
vt 0.892958 0.287274
vt 0.308242 0.363662
vt 0.404232 0.308242
vt 0.404232 0.419081
vt 0.823093 0.356410
vt 0.914514 0.321063
vt 0.914514 0.419080
vt 0.821545 0.321063
vt 0.758873 0.412485
vt 0.723528 0.321063
vt 0.000774 0.195854
vt 0.096765 0.251274
vt 0.000774 0.306695
vt 0.595686 0.600561
vt 0.631033 0.691984
vt 0.533016 0.691984
vt 0.756499 0.287276
vt 0.693828 0.195854
vt 0.791844 0.195854
vt 0.209154 0.194305
vt 0.113164 0.138885
vt 0.209154 0.083463
vt 0.518167 0.420629
vt 0.599013 0.476051
vt 0.518167 0.531470
vt 0.631033 0.786504
vt 0.568361 0.877925
vt 0.533016 0.786504
vt 0.111613 0.404234
vt 0.000774 0.404234
vt 0.056193 0.308243
vt 0.401213 0.817866
vt 0.492635 0.782520
vt 0.492635 0.880535
vt 0.081620 0.503321
vt 0.081620 0.614162
vt 0.000774 0.558743
vt 0.195853 0.195854
vt 0.306693 0.195854
vt 0.251273 0.291845
vt 0.762800 0.420629
vt 0.798145 0.512052
vt 0.700128 0.512052
vt 0.083466 0.615415
vt 0.174888 0.678086
vt 0.083466 0.713433
vt 0.000774 0.000774
vt 0.111615 0.000774
vt 0.056194 0.096765
vt 0.794819 0.600561
vt 0.830164 0.691983
vt 0.732148 0.691983
vt 0.336392 0.081620
vt 0.225552 0.081620
vt 0.280971 0.000774
vt 0.306693 0.293394
vt 0.251274 0.389385
vt 0.195853 0.293394
vt 0.730598 0.784956
vt 0.632582 0.784956
vt 0.667927 0.693533
vt 0.695252 0.691984
vt 0.632582 0.600561
vt 0.730599 0.600561
vt 0.000774 0.098314
vt 0.111615 0.098314
vt 0.056194 0.194305
vt 0.794819 0.693533
vt 0.830163 0.784955
vt 0.732147 0.784955
vt 0.707127 0.118811
vt 0.615704 0.181482
vt 0.615704 0.083463
vt 0.098314 0.195854
vt 0.194305 0.251274
vt 0.098314 0.306694
vt 0.663233 0.420629
vt 0.698579 0.512051
vt 0.600561 0.512051
vt 0.308241 0.682954
vt 0.399664 0.745623
vt 0.308241 0.780971
vt 0.210703 0.138885
vt 0.306693 0.083463
vt 0.306693 0.194304
vt 0.113459 0.308243
vt 0.194305 0.363662
vt 0.113459 0.419083
vt 0.831713 0.593967
vt 0.923134 0.656635
vt 0.831713 0.691983
vt 0.308242 0.179455
vt 0.363661 0.083463
vt 0.419080 0.179455
vt 0.308241 0.817865
vt 0.399662 0.782520
vt 0.399662 0.880538
vt 0.639177 0.786504
vt 0.730598 0.849174
vt 0.639177 0.884521
vt 0.111613 0.501773
vt 0.000774 0.501773
vt 0.056194 0.405783
vt 0.843587 0.174885
vt 0.808240 0.083463
vt 0.906256 0.083464
vt 0.516621 0.419081
vt 0.405781 0.419081
vt 0.461202 0.338235
vt 0.501771 0.195854
vt 0.501770 0.306693
vt 0.405781 0.251274
vt 0.860464 0.877925
vt 0.825117 0.786504
vt 0.923133 0.786504
vt 0.894381 0.784954
vt 0.831712 0.693533
vt 0.929728 0.693533
vt 0.195853 0.390934
vt 0.291844 0.446352
vt 0.195853 0.501773
vt 0.448781 0.000774
vt 0.393361 0.081620
vt 0.337941 0.000774
vt 0.825117 0.970896
vt 0.887786 0.879474
vt 0.923133 0.970896
vt 0.503319 0.306693
vt 0.503319 0.195854
vt 0.599308 0.251272
vt 0.420629 0.681406
vt 0.476048 0.600561
vt 0.531467 0.681406
vt 0.828740 0.195854
vt 0.891409 0.287275
vt 0.793393 0.287275
vt 0.420629 0.420629
vt 0.516619 0.476048
vt 0.420629 0.531469
vt 0.419081 0.518168
vt 0.363661 0.599013
vt 0.308242 0.518168
vn 0.102400 -0.943500 0.315100
vn 0.700200 -0.661700 0.268000
vn -0.268000 -0.943500 0.194700
vn -0.268000 -0.943500 -0.194700
vn 0.102400 -0.943500 -0.315100
vn 0.905000 -0.330400 0.268000
vn 0.024700 -0.330400 0.943500
vn -0.889700 -0.330400 0.315100
vn -0.574600 -0.330400 -0.748800
vn 0.534600 -0.330400 -0.777900
vn 0.802600 -0.125600 0.583100
vn -0.306600 -0.125600 0.943500
vn -0.992100 -0.125600 0.000000
vn -0.306600 -0.125600 -0.943500
vn 0.802600 -0.125600 -0.583100
vn 0.408900 0.661700 0.628400
vn -0.471300 0.661700 0.583100
vn -0.700200 0.661700 -0.268000
vn 0.038500 0.661700 -0.748800
vn 0.724000 0.661700 -0.194700
vn 0.268000 0.943500 -0.194700
vn 0.491100 0.794700 -0.356800
vn 0.408900 0.661700 -0.628400
vn -0.102400 0.943500 -0.315100
vn -0.187600 0.794700 -0.577300
vn -0.471300 0.661700 -0.583100
vn -0.331300 0.943500 0.000000
vn -0.607100 0.794700 0.000000
vn -0.700200 0.661700 0.268000
vn -0.102400 0.943500 0.315100
vn -0.187600 0.794700 0.577300
vn 0.038500 0.661700 0.748800
vn 0.268000 0.943500 0.194700
vn 0.491100 0.794700 0.356800
vn 0.724000 0.661700 0.194700
vn 0.889700 0.330400 -0.315100
vn 0.794700 0.187600 -0.577300
vn 0.574600 0.330400 -0.748800
vn -0.024700 0.330400 -0.943500
vn -0.303500 0.187600 -0.934200
vn -0.534600 0.330400 -0.777900
vn -0.905000 0.330400 -0.268000
vn -0.982200 0.187600 0.000000
vn -0.905000 0.330400 0.268000
vn -0.534600 0.330400 0.777900
vn -0.303500 0.187600 0.934200
vn -0.024700 0.330400 0.943500
vn 0.574600 0.330400 0.748800
vn 0.794700 0.187600 0.577300
vn 0.889700 0.330400 0.315100
vn 0.306600 0.125600 -0.943500
vn 0.303500 -0.187600 -0.934200
vn 0.024700 -0.330400 -0.943500
vn -0.802600 0.125600 -0.583100
vn -0.794700 -0.187600 -0.577300
vn -0.889700 -0.330400 -0.315100
vn -0.802600 0.125600 0.583100
vn -0.794700 -0.187600 0.577300
vn -0.574600 -0.330400 0.748800
vn 0.306600 0.125600 0.943500
vn 0.303500 -0.187600 0.934200
vn 0.534600 -0.330400 0.777900
vn 0.992100 0.125600 0.000000
vn 0.982200 -0.187600 0.000000
vn 0.905000 -0.330400 -0.268000
vn 0.471300 -0.661700 -0.583100
vn 0.187600 -0.794700 -0.577300
vn -0.038500 -0.661700 -0.748800
vn -0.408900 -0.661700 -0.628400
vn -0.491100 -0.794700 -0.356800
vn -0.724000 -0.661700 -0.194700
vn -0.724000 -0.661700 0.194700
vn -0.491100 -0.794700 0.356800
vn -0.408900 -0.661700 0.628400
vn 0.700200 -0.661700 -0.268000
vn 0.607100 -0.794700 0.000000
vn 0.331300 -0.943500 0.000000
vn -0.038500 -0.661700 0.748800
vn 0.187600 -0.794700 0.577300
vn 0.471300 -0.661700 0.583100
usemtl None
s off
f 1/1/1 14/2/1 13/3/1
f 2/4/2 14/5/2 16/6/2
f 1/7/3 13/8/3 18/9/3
f 1/10/4 18/11/4 20/12/4
f 1/13/5 20/14/5 17/15/5
f 2/16/6 16/17/6 23/18/6
f 3/19/7 15/20/7 25/21/7
f 4/22/8 19/23/8 27/24/8
f 5/25/9 21/26/9 29/27/9
f 6/28/10 22/29/10 31/30/10
f 2/31/11 23/32/11 26/33/11
f 3/34/12 25/35/12 28/36/12
f 4/37/13 27/38/13 30/39/13
f 5/40/14 29/41/14 32/42/14
f 6/43/15 31/44/15 24/45/15
f 7/46/16 33/47/16 38/48/16
f 8/49/17 34/50/17 40/51/17
f 9/52/18 35/53/18 41/54/18
f 10/55/19 36/56/19 42/57/19
f 11/58/20 37/59/20 39/60/20
f 39/61/21 42/62/21 12/63/21
f 39/64/22 37/65/22 42/66/22
f 37/67/23 10/68/23 42/69/23
f 42/70/24 41/71/24 12/72/24
f 42/73/25 36/74/25 41/75/25
f 36/76/26 9/77/26 41/78/26
f 41/79/27 40/80/27 12/81/27
f 41/82/28 35/83/28 40/84/28
f 35/85/29 8/86/29 40/87/29
f 40/88/30 38/89/30 12/90/30
f 40/91/31 34/92/31 38/93/31
f 34/94/32 7/95/32 38/96/32
f 38/97/33 39/98/33 12/99/33
f 38/100/34 33/101/34 39/102/34
f 33/103/35 11/104/35 39/105/35
f 24/106/36 37/107/36 11/108/36
f 24/109/37 31/110/37 37/111/37
f 31/112/38 10/113/38 37/114/38
f 32/115/39 36/116/39 10/117/39
f 32/118/40 29/119/40 36/120/40
f 29/121/41 9/122/41 36/123/41
f 30/124/42 35/125/42 9/126/42
f 30/127/43 27/128/43 35/129/43
f 27/130/44 8/131/44 35/132/44
f 28/133/45 34/134/45 8/135/45
f 28/136/46 25/137/46 34/138/46
f 25/139/47 7/140/47 34/141/47
f 26/142/48 33/143/48 7/144/48
f 26/145/49 23/146/49 33/147/49
f 23/148/50 11/149/50 33/150/50
f 31/151/51 32/152/51 10/153/51
f 31/154/52 22/155/52 32/156/52
f 22/157/53 5/158/53 32/159/53
f 29/160/54 30/161/54 9/162/54
f 29/163/55 21/164/55 30/165/55
f 21/166/56 4/167/56 30/168/56
f 27/169/57 28/170/57 8/171/57
f 27/172/58 19/173/58 28/174/58
f 19/175/59 3/176/59 28/177/59
f 25/178/60 26/179/60 7/180/60
f 25/181/61 15/182/61 26/183/61
f 15/184/62 2/185/62 26/186/62
f 23/187/63 24/188/63 11/189/63
f 23/190/64 16/191/64 24/192/64
f 16/193/65 6/194/65 24/195/65
f 17/196/66 22/197/66 6/198/66
f 17/199/67 20/200/67 22/201/67
f 20/202/68 5/203/68 22/204/68
f 20/205/69 21/206/69 5/207/69
f 20/208/70 18/209/70 21/210/70
f 18/211/71 4/212/71 21/213/71
f 18/214/72 19/215/72 4/216/72
f 18/217/73 13/218/73 19/219/73
f 13/220/74 3/221/74 19/222/74
f 16/223/75 17/224/75 6/225/75
f 16/226/76 14/227/76 17/228/76
f 14/229/77 1/230/77 17/231/77
f 13/232/78 15/233/78 3/234/78
f 13/235/79 14/236/79 15/237/79
f 14/238/80 2/239/80 15/240/80
o Cube.003
v 0.880000 -0.879008 -0.880000
v 0.880000 0.879008 -0.880000
v 0.880000 -0.879008 -1.000000
v 0.880000 0.879008 -1.000000
v 1.000000 -0.879008 -0.880000
v 1.000000 0.879008 -0.880000
v 1.000000 -0.879008 -1.000000
v 1.000000 0.879008 -1.000000
vt 0.333533 0.000200
vt 0.666467 0.000200
vt 0.666467 0.333134
vt 0.333533 0.333134
vt 0.000200 0.666467
vt 0.000200 0.333533
vt 0.333134 0.333533
vt 0.333134 0.666467
vt 0.999800 0.666467
vt 0.666866 0.666467
vt 0.666866 0.333533
vt 0.999800 0.333533
vt 0.333134 0.333134
vt 0.000200 0.333134
vt 0.000200 0.000200
vt 0.333134 0.000200
vt 0.000200 0.999800
vt 0.000200 0.666866
vt 0.333134 0.666866
vt 0.333134 0.999800
vt 0.999800 0.000200
vt 0.999800 0.333134
vt 0.666866 0.333134
vt 0.666866 0.000200
vn -1.000000 0.000000 0.000000
vn 0.000000 0.000000 -1.000000
vn 1.000000 0.000000 0.000000
vn 0.000000 0.000000 1.000000
vn 0.000000 -1.000000 0.000000
vn 0.000000 1.000000 0.000000
usemtl None_C1.png
s off
f 44/241/81 46/242/81 45/243/81 43/244/81
f 46/245/82 50/246/82 49/247/82 45/248/82
f 50/249/83 48/250/83 47/251/83 49/252/83
f 48/253/84 44/254/84 43/255/84 47/256/84
f 43/257/85 45/258/85 49/259/85 47/260/85
f 48/261/86 50/262/86 46/263/86 44/264/86
o Cube.001
v -1.000000 -1.000000 1.000000
v -1.000000 -0.880000 1.000000
v -1.000000 -1.000000 -1.000000
v -1.000000 -0.880000 -1.000000
v 1.000000 -1.000000 1.000000
v 1.000000 -0.880000 1.000000
v 1.000000 -1.000000 -1.000000
v 1.000000 -0.880000 -1.000000
vt 0.333533 0.000200
vt 0.666467 0.000200
vt 0.666467 0.333134
vt 0.333533 0.333134
vt 0.000200 0.666467
vt 0.000200 0.333533
vt 0.333134 0.333533
vt 0.333134 0.666467
vt 0.999800 0.666467
vt 0.666866 0.666467
vt 0.666866 0.333533
vt 0.999800 0.333533
vt 0.333134 0.333134
vt 0.000200 0.333134
vt 0.000200 0.000200
vt 0.333134 0.000200
vt 0.000200 0.999800
vt 0.000200 0.666866
vt 0.333134 0.666866
vt 0.333134 0.999800
vt 0.999800 0.000200
vt 0.999800 0.333134
vt 0.666866 0.333134
vt 0.666866 0.000200
vn -1.000000 0.000000 0.000000
vn 0.000000 0.000000 -1.000000
vn 1.000000 0.000000 0.000000
vn 0.000000 0.000000 1.000000
vn 0.000000 -1.000000 0.000000
vn 0.000000 1.000000 0.000000
usemtl None_B1.png
s off
f 52/265/87 54/266/87 53/267/87 51/268/87
f 54/269/88 58/270/88 57/271/88 53/272/88
f 58/273/89 56/274/89 55/275/89 57/276/89
f 56/277/90 52/278/90 51/279/90 55/280/90
f 51/281/91 53/282/91 57/283/91 55/284/91
f 56/285/92 58/286/92 54/287/92 52/288/92
o Cube.002
v -1.000000 0.882114 1.000000
v -1.000000 1.002114 1.000000
v -1.000000 0.882114 -1.000000
v -1.000000 1.002114 -1.000000
v 1.000000 0.882114 1.000000
v 1.000000 1.002114 1.000000
v 1.000000 0.882114 -1.000000
v 1.000000 1.002114 -1.000000
vt 0.333533 0.000200
vt 0.666467 0.000200
vt 0.666467 0.333134
vt 0.333533 0.333134
vt 0.000200 0.666467
vt 0.000200 0.333533
vt 0.333134 0.333533
vt 0.333134 0.666467
vt 0.999800 0.666467
vt 0.666866 0.666467
vt 0.666866 0.333533
vt 0.999800 0.333533
vt 0.333134 0.333134
vt 0.000200 0.333134
vt 0.000200 0.000200
vt 0.333134 0.000200
vt 0.000200 0.999800
vt 0.000200 0.666866
vt 0.333134 0.666866
vt 0.333134 0.999800
vt 0.999800 0.000200
vt 0.999800 0.333134
vt 0.666866 0.333134
vt 0.666866 0.000200
vn -1.000000 0.000000 0.000000
vn 0.000000 0.000000 -1.000000
vn 1.000000 0.000000 0.000000
vn 0.000000 0.000000 1.000000
vn 0.000000 -1.000000 0.000000
vn 0.000000 1.000000 0.000000
usemtl None_B1.png
s off
f 60/289/93 62/290/93 61/291/93 59/292/93
f 62/293/94 66/294/94 65/295/94 61/296/94
f 66/297/95 64/298/95 63/299/95 65/300/95
f 64/301/96 60/302/96 59/303/96 63/304/96
f 59/305/97 61/306/97 65/307/97 63/308/97
f 64/309/98 66/310/98 62/311/98 60/312/98
o Cube.004
v 0.880000 -0.879008 1.000000
v 0.880000 0.879008 1.000000
v 0.880000 -0.879008 0.880000
v 0.880000 0.879008 0.880000
v 1.000000 -0.879008 1.000000
v 1.000000 0.879008 1.000000
v 1.000000 -0.879008 0.880000
v 1.000000 0.879008 0.880000
vt 0.333533 0.000200
vt 0.666467 0.000200
vt 0.666467 0.333134
vt 0.333533 0.333134
vt 0.000200 0.666467
vt 0.000200 0.333533
vt 0.333134 0.333533
vt 0.333134 0.666467
vt 0.999800 0.666467
vt 0.666866 0.666467
vt 0.666866 0.333533
vt 0.999800 0.333533
vt 0.333134 0.333134
vt 0.000200 0.333134
vt 0.000200 0.000200
vt 0.333134 0.000200
vt 0.000200 0.999800
vt 0.000200 0.666866
vt 0.333134 0.666866
vt 0.333134 0.999800
vt 0.999800 0.000200
vt 0.999800 0.333134
vt 0.666866 0.333134
vt 0.666866 0.000200
vn -1.000000 0.000000 0.000000
vn 0.000000 0.000000 -1.000000
vn 1.000000 0.000000 0.000000
vn 0.000000 0.000000 1.000000
vn 0.000000 -1.000000 0.000000
vn 0.000000 1.000000 0.000000
usemtl None_C1.png
s off
f 68/313/99 70/314/99 69/315/99 67/316/99
f 70/317/100 74/318/100 73/319/100 69/320/100
f 74/321/101 72/322/101 71/323/101 73/324/101
f 72/325/102 68/326/102 67/327/102 71/328/102
f 67/329/103 69/330/103 73/331/103 71/332/103
f 72/333/104 74/334/104 70/335/104 68/336/104
o Cube.005
v -1.000000 -0.879008 1.000000
v -1.000000 0.879008 1.000000
v -1.000000 -0.879008 0.880000
v -1.000000 0.879008 0.880000
v -0.880000 -0.879008 1.000000
v -0.880000 0.879008 1.000000
v -0.880000 -0.879008 0.880000
v -0.880000 0.879008 0.880000
vt 0.333533 0.000200
vt 0.666467 0.000200
vt 0.666467 0.333134
vt 0.333533 0.333134
vt 0.000200 0.666467
vt 0.000200 0.333533
vt 0.333134 0.333533
vt 0.333134 0.666467
vt 0.999800 0.666467
vt 0.666866 0.666467
vt 0.666866 0.333533
vt 0.999800 0.333533
vt 0.333134 0.333134
vt 0.000200 0.333134
vt 0.000200 0.000200
vt 0.333134 0.000200
vt 0.000200 0.999800
vt 0.000200 0.666866
vt 0.333134 0.666866
vt 0.333134 0.999800
vt 0.999800 0.000200
vt 0.999800 0.333134
vt 0.666866 0.333134
vt 0.666866 0.000200
vn -1.000000 0.000000 0.000000
vn 0.000000 0.000000 -1.000000
vn 1.000000 0.000000 0.000000
vn 0.000000 0.000000 1.000000
vn 0.000000 -1.000000 0.000000
vn 0.000000 1.000000 0.000000
usemtl None_C1.png
s off
f 76/337/105 78/338/105 77/339/105 75/340/105
f 78/341/106 82/342/106 81/343/106 77/344/106
f 82/345/107 80/346/107 79/347/107 81/348/107
f 80/349/108 76/350/108 75/351/108 79/352/108
f 75/353/109 77/354/109 81/355/109 79/356/109
f 80/357/110 82/358/110 78/359/110 76/360/110
o Cube.006
v -1.000000 -0.879008 -0.880000
v -1.000000 0.879008 -0.880000
v -1.000000 -0.879008 -1.000000
v -1.000000 0.879008 -1.000000
v -0.880000 -0.879008 -0.880000
v -0.880000 0.879008 -0.880000
v -0.880000 -0.879008 -1.000000
v -0.880000 0.879008 -1.000000
vt 0.333533 0.000200
vt 0.666467 0.000200
vt 0.666467 0.333134
vt 0.333533 0.333134
vt 0.000200 0.666467
vt 0.000200 0.333533
vt 0.333134 0.333533
vt 0.333134 0.666467
vt 0.999800 0.666467
vt 0.666866 0.666467
vt 0.666866 0.333533
vt 0.999800 0.333533
vt 0.333134 0.333134
vt 0.000200 0.333134
vt 0.000200 0.000200
vt 0.333134 0.000200
vt 0.000200 0.999800
vt 0.000200 0.666866
vt 0.333134 0.666866
vt 0.333134 0.999800
vt 0.999800 0.000200
vt 0.999800 0.333134
vt 0.666866 0.333134
vt 0.666866 0.000200
vn -1.000000 0.000000 0.000000
vn 0.000000 0.000000 -1.000000
vn 1.000000 0.000000 0.000000
vn 0.000000 0.000000 1.000000
vn 0.000000 -1.000000 0.000000
vn 0.000000 1.000000 0.000000
usemtl None_C1.png
s off
f 84/361/111 86/362/111 85/363/111 83/364/111
f 86/365/112 90/366/112 89/367/112 85/368/112
f 90/369/113 88/370/113 87/371/113 89/372/113
f 88/373/114 84/374/114 83/375/114 87/376/114
f 83/377/115 85/378/115 89/379/115 87/380/115
f 88/381/116 90/382/116 86/383/116 84/384/116
